<!--?xml version="1.0" encoding="utf-8"?-->
<!-- Generator: Adobe Illustrator 18.1.1, SVG Export Plug-In . SVG Version: 6.00 Build 0)  -->

<svg version="1.1" id="_x31_0" xmlns="http://www.w3.org/2000/svg" xmlns:xlink="http://www.w3.org/1999/xlink" x="0px" y="0px" viewBox="0 0 512 512" style="width: 256px; height: 256px; opacity: 1;" xml:space="preserve">
<style type="text/css">
	.st0{fill:#374149;}
</style>
<g>
	<path class="st0" d="M512,304.12c0-13.891-4.886-27.321-13.813-38.07c5.922-9.352,9.082-20.11,9.149-31.282
		c0.086-15.519-6.054-30.258-17.289-41.496c-11.618-11.703-27.594-18.418-43.825-18.418h-98.742c-3.122,0-5.508-2.782-5.035-5.867
		l5.086-33.07c0.985-6.317,1.481-12.786,1.481-19.215c0-49.847-34.547-107.793-79.086-107.793c-13.414,0-26.457,4.722-36.718,13.301
		l0,0c-4.387,3.656-6.73,9.211-6.293,14.902l5.492,71.91c0.183,2.695-0.016,5.23-0.598,7.562c-0.622,2.542-1.606,4.906-3.09,7.355
		l-41.023,75.985l-16.043,29.582c-5.37-6.801-13.617-10.851-22.625-10.851H28.75c-15.879,0-28.75,12.87-28.75,28.75v226.942
		c0,15.875,12.871,28.746,28.75,28.746h120.277c13.821,0,25.297-9.777,28.09-22.738c0.298-1.286,0.59-2.57,0.715-3.918
		c21.551,12.57,44.16,12.734,45.187,12.734l181.641-0.168c31.489-1.672,56.153-27.726,56.153-59.316
		c0-2.801-0.188-5.574-0.555-8.301c19.07-10.402,30.821-30.172,30.821-52.145c0-6.012-0.898-11.934-2.672-17.641
		C503.226,340.456,512,322.889,512,304.12z M459.778,327.264l-17.836,5.528l-5.894,1.769l0.035,0.043l-0.165,0.051l15.035,20.086
		c3.188,4.211,4.875,9.226,4.875,14.5c0,11.898-8.484,21.934-20.183,23.859l-18.168,3.047l-5.618,0.89l0.024,0.047l-0.165,0.027
		l11.13,21.5c1.855,3.582,2.793,7.309,2.793,11.074c0,12.706-9.848,23.32-22.211,24.16l-180.336,0.078
		c-0.199,0-19.859-0.504-33.902-12.43c-3.851-3.242-7.441-5.609-11.336-7.441V275.072l14.91-12.914
		c1.801-1.563,3.305-3.442,4.438-5.539l61.965-114.898c3.141-5.242,5.453-10.902,6.855-16.774
		c1.458-5.821,1.965-12.066,1.516-18.582l-4.614-61.066c2.254-0.75,4.637-1.14,7-1.14c22.578,0,43.84,40.866,43.84,72.542
		c0,4.684-0.367,9.309-1.086,13.793l-10.867,70.852c-0.707,4.61,2.855,8.762,7.515,8.762h136.894c6.95,0,13.832,2.894,18.871,7.946
		c4.57,4.621,7.055,10.476,6.992,16.511c0,7.485-3.492,14.434-9.578,19.055l-15.141,11.465l-6.156,4.582l0.062,0.035l-0.137,0.106
		l22.254,12.61c7.172,4.062,12.496,11.168,13.258,19.375C477.726,313.404,470.66,323.854,459.778,327.264z M142.61,466.701v1.145
		H35.25V253.904H142.61V466.701z" style="fill: rgb(75, 75, 75);"></path>
</g>
</svg>
