<?xml version="1.0" encoding="utf-8"?>
<!-- Generator: Adobe Illustrator 28.0.0, SVG Export Plug-In . SVG Version: 6.00 Build 0)  -->
<svg version="1.1" xmlns="http://www.w3.org/2000/svg" xmlns:xlink="http://www.w3.org/1999/xlink" x="0px" y="0px"
	 viewBox="0 0 160 160" style="enable-background:new 0 0 160 160;" xml:space="preserve">
<style type="text/css">
	.st0{display:none;}
	.st1{display:inline;}
	.st2{fill:#FFFFFF;stroke:#FFFFFF;stroke-miterlimit:10;}
</style>
<g id="图层_1" class="st0">
	
		<image style="display:inline;overflow:visible;opacity:0.1;" width="564" height="423" xlink:href="4818a6843dc44af3431fef081320a5d3.jpg"  transform="matrix(0.5337 0 0 0.5337 -6 -33)">
	</image>
</g>
<g id="图层_3" class="st0">
	
		<image style="display:inline;overflow:visible;opacity:0.1;" width="325" height="260" xlink:href="c2316aedbd4eaefb65b21ea5766c2fd3.jpg"  transform="matrix(1 0 0 1 -47 -35)">
	</image>
</g>
<g id="图层_4" class="st0">
	
		<image style="display:inline;overflow:visible;opacity:0.1;" width="564" height="423" xlink:href="f1395e1cfcf7b193d51cb10647f01f5c.jpg"  transform="matrix(0.7991 0 0 0.7991 -259 -97)">
	</image>
</g>
<g id="图层_5">
	<rect width="160" height="160"/>
</g>
<g id="うさぎ" class="st0">
	<g class="st1">
		<path class="st2" d="M117.3,54.3c-16.8-0.5-57.7,2.4-99.4,55.6c-1.1,1.4,0.5,3.2,2,2.4c11-6.1,32.7-17.5,42.2-17.1
			c1.2,0.1,1.8,1.4,1.2,2.4c-4.1,6.6-17,28.2-15.6,37c0.2,1.2,1.6,1.7,2.6,0.9c9.2-6.9,47.4-55.3,79.1-78.4
			C130.7,56.1,118.9,54.3,117.3,54.3z"/>
		<circle class="st2" cx="50.8" cy="73.5" r="6.8"/>
		<path class="st2" d="M109.7,43.9c0,0,35.8,16.2,32.5,25.5c-3.3,9.3-35.4,0.5-35.4,0.5s12.4-11.1,1.5-13.8
			C87.7,51,78.4,19.4,86.6,24.9C94.2,29.9,98.8,35.7,109.7,43.9z"/>
	</g>
</g>
<g id="图层_7">
	<path class="st2" d="M42.7,136.2c0.3,1.7,2.2,2,2.3,0.4c0.9-16.7,7.3-51.1,37.5-63.2c24.3-9.7,43.5-6.1,50.1-1.5
		c1.1,0.8,1.9-0.6,1.2-1.9c-5.1-9.5-34.3-25.7-61-14.6C34,71.6,38.6,116.8,42.7,136.2z"/>
	<path class="st2" d="M87.4,41.9c0,0-11.2-23.4-8.7-26.8c2.5-3.4,42.4,43,32.9,47.8s-69-31.4-55.3-30.7
		C68.5,32.9,87.4,41.9,87.4,41.9z"/>
	<circle class="st2" cx="31.4" cy="94.1" r="5.9"/>
</g>
</svg>
