<?xml version="1.0" encoding="utf-8"?>
<!-- Generator: Adobe Illustrator 28.1.0, SVG Export Plug-In . SVG Version: 6.00 Build 0)  -->
<svg version="1.1" id="图层_1" xmlns="http://www.w3.org/2000/svg" xmlns:xlink="http://www.w3.org/1999/xlink" x="0px" y="0px"
	 viewBox="0 0 1280 670" style="enable-background:new 0 0 1280 670;" xml:space="preserve">
<style type="text/css">
	.st0{fill:#231815;stroke:#231815;stroke-miterlimit:10;}
	.st1{fill:#FFFFFF;stroke:#231815;stroke-miterlimit:10;}
</style>
<g>
	<g>
		<path class="st0" d="M453.7,313.5c18.5,32.2,34.6,42.8,39.8,45.6c0.7,0.4,1.5-0.3,1.3-1l-30.4-113.2c-0.1-0.5-0.7-0.8-1.2-0.6
			C457.1,247,425.4,264.3,453.7,313.5z"/>
		<path class="st0" d="M524.7,244.9L494.3,358c-0.2,0.8,0.6,1.4,1.3,1.1c5.3-2.8,21.3-13.4,39.8-45.6c28.3-49.2-3.3-66.5-9.4-69.2
			C525.4,244.1,524.8,244.4,524.7,244.9z"/>
	</g>
	<path class="st0" d="M401.6,319.6l-14.9,24.5c0,0,24,15.5,31.6,2.9C425.9,334.4,401.6,319.6,401.6,319.6z"/>
	<path class="st0" d="M269.5,314.3h-12.2c-2.8,0-5.5,1.2-7.3,3.4c-4.9,5.8-11.9,9.4-19.7,9.4c-14.8,0-26.8-13-26.8-29
		c0-16,12-29,26.8-29c7.9,0,14.9,3.7,19.8,9.5c1.8,2.2,4.5,3.4,7.4,3.4H269c7.3,0,12.1-7.9,8.4-14.3c-9.6-16.9-26.9-28.1-46.6-28.1
		c-30.2,0-54.6,26.4-54.6,59c0,32.6,24.5,59,54.6,59c20.1,0,37.6-11.7,47.1-29.2C281.5,322.1,276.8,314.3,269.5,314.3z"/>
	<g>
		<path class="st0" d="M1011.1,309.7c17.2,29.9,32.3,41.2,38.5,44.9c1.2,0.7,2.5-0.4,2.2-1.7L1022,241.7c-0.2-0.9-1.2-1.4-2.1-1
			C1012.5,244.4,983.7,262.1,1011.1,309.7z"/>
		<path class="st0" d="M1081.3,241.6l-57,186.8c-0.5,1.7,1.9,2.7,2.7,1.1c14.6-27.6,47.8-89.8,65.1-119.9c27.5-47.8-1.6-65.4-8.8-69
			C1082.5,240.3,1081.5,240.8,1081.3,241.6z"/>
	</g>
	<path class="st0" d="M362.6,239.7c-30.2,0-54.6,26.4-54.6,59c0,32.6,24.5,59,54.6,59s54.6-26.4,54.6-59
		C417.2,266.1,392.7,239.7,362.6,239.7z M361.9,327.1c-14.8,0-26.8-13-26.8-29c0-16,12-29,26.8-29s26.8,13,26.8,29
		C388.7,314.2,376.7,327.1,361.9,327.1z"/>
	<path class="st1" d="M250,383.6"/>
	<path class="st0" d="M666.4,323.9l-14.9,24.5c0,0,24,15.5,31.6,2.9C690.7,338.8,666.4,323.9,666.4,323.9z"/>
	<path class="st0" d="M770,241.4c-29.5,0-53.3,26.4-53.3,58.9c0,26.7-2,48.5,19.5,55.8c0.5,0.2,1.1,0.3,1.7,0.3l0,0
		c3.4,0,6-3.3,5.2-6.7c-2.7-13.4,0-41.6,0-49.9c0-16,11.7-28.9,26.2-28.9c14.5,0,26.2,12.9,26.2,28.9c0,7.6,2.2,36.5-0.3,50.1
		c-0.6,3.4,1.9,6.5,5.3,6.5h4.1c0.6,0,1.2-0.1,1.8-0.3c21.1-7.5,16.9-29.4,16.9-55.8C823.3,267.7,799.4,241.4,770,241.4z"/>
	<path class="st0" d="M911.5,241.4c-29.5,0-53.3,26.4-53.3,58.9c0,26.7-2,48.5,19.5,55.8c0.5,0.2,1.1,0.3,1.7,0.3l0,0
		c3.4,0,6-3.3,5.2-6.7c-2.7-13.4,0-41.6,0-49.9c0-16,11.7-28.9,26.2-28.9c14.5,0,26.2,12.9,26.2,28.9c0,7.6,2.2,36.5-0.3,50.1
		c-0.6,3.4,1.9,6.5,5.3,6.5h4.1c0.6,0,1.2-0.1,1.8-0.3c21.1-7.5,16.9-29.4,16.9-55.8C964.8,267.7,940.9,241.4,911.5,241.4z"/>
	<path class="st0" d="M657,242.5L657,242.5c-3.2,0-5.6,3-4.9,6.2c2.7,13.2,0.1,42,0.1,50.5c0,16-10.9,29-24.2,29s-24.2-13-24.2-29
		c0-7.7-2.1-37.3,0.4-50.6c0.6-3.2-1.8-6.1-4.9-6.1h-3.8c-0.6,0-1.2,0.1-1.8,0.3c-19.5,7.6-15.6,29.5-15.6,55.8
		c0,32.6,22.1,59,49.4,59c27.3,0,49.4-26.4,49.4-59c0-26.7,1.9-48.6-18-55.9C658.2,242.6,657.6,242.5,657,242.5z"/>
</g>
</svg>
