<?xml version="1.0" standalone="no"?>
<!DOCTYPE svg PUBLIC "-//W3C//DTD SVG 20010904//EN"
 "http://www.w3.org/TR/2001/REC-SVG-20010904/DTD/svg10.dtd">
<svg version="1.0" xmlns="http://www.w3.org/2000/svg"
 width="1280.000000pt" height="1280.000000pt" viewBox="0 0 1280.000000 1280.000000"
 preserveAspectRatio="xMidYMid meet">

<g transform="translate(0.000000,1280.000000) scale(0.100000,-0.100000)"
fill="#000000" stroke="none">
<path d="M2935 8760 c-4 -7 -250 -10 -705 -10 -455 0 -701 -3 -705 -10 -4 -6
-137 -10 -367 -10 l-361 0 4 -357 4 -358 -27 -124 c-15 -68 -31 -128 -36 -135
-5 -6 -19 -39 -32 -74 -12 -34 -38 -88 -57 -119 -125 -209 -198 -361 -257
-538 -48 -144 -61 -198 -83 -350 l-25 -180 17 -135 c9 -74 21 -169 26 -210 5
-41 30 -133 55 -205 25 -71 51 -150 59 -175 33 -110 137 -316 195 -388 16 -20
47 -78 70 -128 38 -87 41 -102 65 -310 21 -188 25 -263 25 -530 l0 -312 62 -7
c98 -11 1066 -25 2029 -30 482 -3 885 -8 894 -12 31 -11 5912 5 5935 17 13 7
191 11 549 10 349 0 532 3 536 10 4 6 144 10 400 10 252 0 396 4 400 10 4 6
57 10 126 10 l119 0 0 203 c0 237 10 346 40 442 63 202 81 258 110 350 37 116
94 254 127 307 13 21 23 40 23 43 0 3 24 38 53 78 50 67 86 127 135 222 29 56
35 72 86 230 39 121 47 160 58 290 15 176 15 266 1 430 -13 141 -14 147 -60
290 -37 114 -130 312 -187 400 -51 78 -146 218 -198 293 -79 115 -126 217
-150 332 -20 93 -23 135 -24 375 0 149 -2 278 -2 288 -2 16 -27 17 -366 17
-233 0 -367 4 -371 10 -4 6 -170 10 -465 10 -295 0 -461 4 -465 10 -4 7 -248
10 -700 10 -452 0 -696 3 -700 10 -9 14 -5851 14 -5860 0z m5739 -118 c3 -5
499 -12 1103 -16 649 -4 1102 -11 1109 -16 6 -6 164 -11 360 -12 l349 -3 0
-270 c0 -414 32 -525 226 -788 33 -43 75 -108 95 -143 20 -35 39 -64 44 -64 4
0 14 -15 21 -32 7 -18 29 -60 49 -93 20 -33 39 -69 43 -80 3 -11 23 -70 45
-132 60 -168 77 -287 76 -543 -1 -183 -4 -226 -22 -290 -27 -101 -61 -207 -81
-254 -27 -65 -255 -515 -304 -601 -30 -53 -62 -131 -92 -230 -25 -82 -57 -186
-71 -230 -36 -117 -44 -186 -44 -412 l0 -203 -118 0 c-65 0 -122 -4 -128 -9
-5 -6 -369 -12 -889 -17 -484 -3 -885 -10 -891 -15 -15 -12 -1366 -19 -3669
-19 -2423 0 -3655 7 -3655 20 0 6 -182 10 -512 11 -282 1 -542 4 -578 8 l-65
6 -6 385 c-5 322 -9 407 -27 517 -24 149 -64 255 -129 341 -56 75 -137 241
-189 388 -82 229 -83 234 -130 604 -11 86 39 359 100 541 53 160 68 195 177
389 122 219 177 357 198 500 6 36 9 213 8 397 -1 182 1 334 4 337 3 3 459 9
1013 13 554 3 1009 10 1012 15 7 11 5561 11 5568 0z"/>
<path d="M779 6587 c-76 -50 -86 -138 -24 -205 31 -35 37 -37 94 -37 53 0 63
4 91 30 118 113 -25 303 -161 212z"/>
<path d="M11875 6592 c-39 -24 -54 -43 -65 -83 -13 -45 3 -98 40 -134 28 -26
38 -30 91 -30 57 0 63 2 94 37 44 47 53 95 29 145 -37 74 -124 104 -189 65z"/>
</g>
</svg>
