<?xml version="1.0" encoding="UTF-8" standalone="no"?>
<!DOCTYPE svg PUBLIC "-//W3C//DTD SVG 1.1//EN" "http://www.w3.org/Graphics/SVG/1.1/DTD/svg11.dtd">
<svg xmlns="http://www.w3.org/2000/svg" version="1.1" viewBox="0.00 0.00 1024.00 1024.00">
<g stroke-width="2.00" fill="none" stroke-linecap="butt">
<path stroke="#808080" vector-effect="non-scaling-stroke" d="
  M 226.98 586.60
  Q 236.71 600.37 241.48 606.51
  Q 278.16 653.73 314.68 701.07
  Q 328.77 719.34 343.51 737.02
  Q 343.70 737.24 343.96 737.14
  Q 344.26 737.03 344.25 736.75
  Q 343.89 727.88 343.88 719.00
  Q 343.69 553.75 343.79 388.50
  C 343.79 384.09 341.74 381.93 339.10 378.64
  Q 310.78 343.36 291.59 320.21
  C 272.56 297.27 254.15 273.76 235.45 250.54
  C 232.97 247.46 229.46 242.15 225.00 242.17
  Q 162.24 242.38 98.98 242.20
  Q 97.68 242.20 97.68 243.50
  L 97.76 745.07
  A 0.56 0.56 0.0 0 0 98.32 745.63
  L 226.33 745.59
  Q 226.91 745.59 226.91 745.01
  Q 227.28 672.89 227.00 601.08
  C 226.98 596.60 226.67 591.55 226.48 586.77
  Q 226.45 585.84 226.98 586.60"
/>
<path stroke="#808080" vector-effect="non-scaling-stroke" d="
  M 518.33 371.09
  L 731.30 370.98
  Q 731.87 370.98 731.87 371.55
  L 731.92 744.77
  A 0.85 0.85 0.0 0 0 732.77 745.62
  L 862.96 745.58
  Q 864.00 745.58 864.00 744.54
  L 864.01 371.78
  A 0.71 0.71 0.0 0 1 864.72 371.07
  L 928.26 371.16
  Q 928.71 371.16 928.71 370.71
  Q 928.58 311.61 928.58 252.50
  Q 928.58 247.91 928.44 243.20
  Q 928.43 242.63 927.86 242.56
  Q 925.02 242.25 921.00 242.25
  Q 651.67 242.26 382.43 242.24
  A 0.38 0.37 90.0 0 0 382.06 242.62
  Q 382.49 488.75 382.19 734.75
  Q 382.18 738.60 382.67 745.10
  Q 382.71 745.56 383.17 745.56
  L 517.31 745.59
  A 0.18 0.18 0.0 0 0 517.49 745.43
  Q 517.81 742.63 517.81 739.74
  Q 517.90 642.09 517.70 544.33
  Q 517.70 543.76 518.27 543.76
  L 649.20 543.77
  A 0.53 0.52 90.0 0 0 649.72 543.24
  L 649.78 415.52
  A 0.76 0.75 0.0 0 0 649.02 414.77
  L 518.45 414.86
  A 0.67 0.66 -0.0 0 1 517.78 414.20
  L 517.76 371.66
  Q 517.76 371.09 518.33 371.09"
/>
</g>
<path fill="#ffffff" d="
  M 526.88 8.13
  Q 527.23 7.76 527.63 8.17
  Q 527.96 8.51 528.43 8.52
  Q 574.41 9.31 618.24 18.99
  Q 670.18 30.46 719.71 52.53
  Q 729.14 56.74 755.83 70.89
  C 784.03 85.84 810.80 104.80 835.42 125.05
  C 838.93 127.94 844.29 132.88 848.87 136.63
  Q 851.93 139.15 854.19 141.34
  C 865.90 152.69 878.19 164.08 888.75 176.11
  Q 916.77 208.01 939.67 243.83
  Q 948.61 257.83 959.05 278.70
  C 966.98 294.56 973.50 306.63 979.14 321.57
  Q 991.56 354.42 1000.77 388.32
  C 1006.74 410.29 1010.26 431.87 1013.07 455.75
  Q 1013.93 463.07 1014.16 467.85
  C 1014.54 475.57 1015.26 482.28 1015.26 489.46
  C 1015.27 508.81 1015.89 528.54 1014.76 547.74
  Q 1011.80 598.44 997.66 647.16
  C 991.81 667.31 984.86 689.63 977.22 706.76
  Q 971.69 719.18 958.50 745.48
  Q 947.94 766.55 938.63 781.05
  Q 917.36 814.21 894.96 839.96
  Q 890.79 844.75 888.27 847.79
  Q 884.10 852.80 881.45 855.48
  Q 868.67 868.44 855.72 881.22
  Q 852.91 884.00 850.60 885.82
  C 846.30 889.19 843.39 892.46 839.98 895.42
  Q 794.32 934.96 740.37 961.76
  Q 729.84 966.99 722.41 970.56
  Q 699.10 981.73 674.47 989.74
  C 657.27 995.33 639.69 1000.68 622.14 1004.66
  Q 590.20 1011.89 560.99 1014.41
  Q 535.42 1016.62 504.32 1015.77
  Q 503.11 1015.73 497.68 1015.97
  Q 494.97 1016.09 491.01 1015.98
  C 426.73 1014.09 363.40 998.24 304.74 972.23
  Q 293.50 967.24 266.14 952.65
  Q 256.42 947.47 248.80 942.72
  Q 215.87 922.21 186.11 897.31
  C 183.93 895.48 178.59 890.51 174.62 887.40
  Q 171.88 885.26 170.02 883.44
  Q 156.38 870.11 142.98 856.53
  Q 139.98 853.49 135.96 848.57
  C 132.97 844.91 129.24 840.93 126.66 837.85
  Q 97.90 803.62 75.31 765.08
  Q 70.95 757.63 65.89 747.45
  C 59.27 734.16 52.03 720.58 46.61 707.26
  Q 33.18 674.34 23.41 637.79
  Q 10.55 589.70 8.49 541.50
  C 7.94 528.47 8.42 512.77 8.24 498.42
  Q 8.13 490.22 8.53 482.34
  C 8.88 475.21 9.07 467.75 9.79 460.91
  Q 17.91 383.56 48.55 312.29
  Q 51.82 304.68 57.10 294.20
  C 63.07 282.32 69.07 269.68 75.37 258.82
  Q 101.40 213.90 136.23 175.25
  C 136.89 174.52 137.45 173.08 138.26 172.27
  Q 153.11 157.21 168.12 142.32
  C 171.13 139.33 174.95 136.44 177.60 134.09
  C 205.50 109.38 236.69 86.73 269.76 69.49
  C 289.87 59.00 308.87 49.06 329.53 41.38
  Q 365.11 28.15 402.01 19.33
  Q 411.42 17.07 421.60 15.28
  Q 447.24 10.77 465.00 9.39
  Q 470.09 8.99 485.67 8.38
  C 498.32 7.88 513.08 8.88 526.88 8.13
  Z
  M 226.98 586.60
  Q 236.71 600.37 241.48 606.51
  Q 278.16 653.73 314.68 701.07
  Q 328.77 719.34 343.51 737.02
  Q 343.70 737.24 343.96 737.14
  Q 344.26 737.03 344.25 736.75
  Q 343.89 727.88 343.88 719.00
  Q 343.69 553.75 343.79 388.50
  C 343.79 384.09 341.74 381.93 339.10 378.64
  Q 310.78 343.36 291.59 320.21
  C 272.56 297.27 254.15 273.76 235.45 250.54
  C 232.97 247.46 229.46 242.15 225.00 242.17
  Q 162.24 242.38 98.98 242.20
  Q 97.68 242.20 97.68 243.50
  L 97.76 745.07
  A 0.56 0.56 0.0 0 0 98.32 745.63
  L 226.33 745.59
  Q 226.91 745.59 226.91 745.01
  Q 227.28 672.89 227.00 601.08
  C 226.98 596.60 226.67 591.55 226.48 586.77
  Q 226.45 585.84 226.98 586.60
  Z
  M 518.33 371.09
  L 731.30 370.98
  Q 731.87 370.98 731.87 371.55
  L 731.92 744.77
  A 0.85 0.85 0.0 0 0 732.77 745.62
  L 862.96 745.58
  Q 864.00 745.58 864.00 744.54
  L 864.01 371.78
  A 0.71 0.71 0.0 0 1 864.72 371.07
  L 928.26 371.16
  Q 928.71 371.16 928.71 370.71
  Q 928.58 311.61 928.58 252.50
  Q 928.58 247.91 928.44 243.20
  Q 928.43 242.63 927.86 242.56
  Q 925.02 242.25 921.00 242.25
  Q 651.67 242.26 382.43 242.24
  A 0.38 0.37 90.0 0 0 382.06 242.62
  Q 382.49 488.75 382.19 734.75
  Q 382.18 738.60 382.67 745.10
  Q 382.71 745.56 383.17 745.56
  L 517.31 745.59
  A 0.18 0.18 0.0 0 0 517.49 745.43
  Q 517.81 742.63 517.81 739.74
  Q 517.90 642.09 517.70 544.33
  Q 517.70 543.76 518.27 543.76
  L 649.20 543.77
  A 0.53 0.52 90.0 0 0 649.72 543.24
  L 649.78 415.52
  A 0.76 0.75 0.0 0 0 649.02 414.77
  L 518.45 414.86
  A 0.67 0.66 -0.0 0 1 517.78 414.20
  L 517.76 371.66
  Q 517.76 371.09 518.33 371.09
  Z"
/>
<path fill="#000000" d="
  M 226.48 586.77
  C 226.67 591.55 226.98 596.60 227.00 601.08
  Q 227.28 672.89 226.91 745.01
  Q 226.91 745.59 226.33 745.59
  L 98.32 745.63
  A 0.56 0.56 0.0 0 1 97.76 745.07
  L 97.68 243.50
  Q 97.68 242.20 98.98 242.20
  Q 162.24 242.38 225.00 242.17
  C 229.46 242.15 232.97 247.46 235.45 250.54
  C 254.15 273.76 272.56 297.27 291.59 320.21
  Q 310.78 343.36 339.10 378.64
  C 341.74 381.93 343.79 384.09 343.79 388.50
  Q 343.69 553.75 343.88 719.00
  Q 343.89 727.88 344.25 736.75
  Q 344.26 737.03 343.96 737.14
  Q 343.70 737.24 343.51 737.02
  Q 328.77 719.34 314.68 701.07
  Q 278.16 653.73 241.48 606.51
  Q 236.71 600.37 226.98 586.60
  Q 226.45 585.84 226.48 586.77
  Z"
/>
<path fill="#000000" d="
  M 517.76 371.66
  L 517.78 414.20
  A 0.67 0.66 -0.0 0 0 518.45 414.86
  L 649.02 414.77
  A 0.76 0.75 0.0 0 1 649.78 415.52
  L 649.72 543.24
  A 0.53 0.52 90.0 0 1 649.20 543.77
  L 518.27 543.76
  Q 517.70 543.76 517.70 544.33
  Q 517.90 642.09 517.81 739.74
  Q 517.81 742.63 517.49 745.43
  A 0.18 0.18 0.0 0 1 517.31 745.59
  L 383.17 745.56
  Q 382.71 745.56 382.67 745.10
  Q 382.18 738.60 382.19 734.75
  Q 382.49 488.75 382.06 242.62
  A 0.38 0.37 -90.0 0 1 382.43 242.24
  Q 651.67 242.26 921.00 242.25
  Q 925.02 242.25 927.86 242.56
  Q 928.43 242.63 928.44 243.20
  Q 928.58 247.91 928.58 252.50
  Q 928.58 311.61 928.71 370.71
  Q 928.71 371.16 928.26 371.16
  L 864.72 371.07
  A 0.71 0.71 0.0 0 0 864.01 371.78
  L 864.00 744.54
  Q 864.00 745.58 862.96 745.58
  L 732.77 745.62
  A 0.85 0.85 0.0 0 1 731.92 744.77
  L 731.87 371.55
  Q 731.87 370.98 731.30 370.98
  L 518.33 371.09
  Q 517.76 371.09 517.76 371.66
  Z"
/>
</svg>
