<?xml version="1.0" standalone="no"?>
<!DOCTYPE svg PUBLIC "-//W3C//DTD SVG 20010904//EN"
 "http://www.w3.org/TR/2001/REC-SVG-20010904/DTD/svg10.dtd">
<svg version="1.0" xmlns="http://www.w3.org/2000/svg"
 width="1280.000000pt" height="1280.000000pt" viewBox="0 0 1280.000000 1280.000000"
 preserveAspectRatio="xMidYMid meet">

<g transform="translate(0.000000,1280.000000) scale(0.100000,-0.100000)"
fill="#000000" stroke="none">
<path d="M2390 11496 c-117 -25 -212 -104 -265 -217 -59 -131 -56 130 -53
-3779 l3 -3575 22 -77 c39 -138 105 -239 182 -277 73 -37 225 -53 295 -32 218
68 243 79 1156 511 410 194 1152 545 1650 780 939 444 2401 1136 2930 1387
168 80 640 304 1050 498 410 194 773 367 808 385 71 38 193 158 232 230 22 41
25 56 25 160 -1 95 -5 126 -24 177 -31 82 -103 169 -176 214 -101 60 -7464
3561 -7563 3596 -103 36 -172 41 -272 19z m705 -1295 c28 -10 111 -47 185 -81
74 -34 169 -77 210 -95 87 -37 189 -84 275 -125 33 -16 157 -72 275 -125 118
-54 251 -114 295 -135 44 -21 125 -58 180 -83 450 -204 657 -297 664 -297 5 0
42 -15 82 -34 41 -19 126 -57 189 -86 63 -29 142 -65 175 -80 33 -15 107 -49
165 -75 58 -25 132 -59 165 -75 76 -35 405 -184 730 -330 137 -62 256 -116
265 -121 19 -11 401 -180 460 -204 25 -10 88 -38 140 -62 101 -47 102 -48 255
-116 55 -25 159 -72 230 -105 72 -33 168 -76 215 -96 80 -35 94 -42 138 -66 9
-5 89 -42 177 -81 88 -39 183 -82 210 -94 28 -13 89 -42 138 -64 50 -23 87
-46 87 -54 0 -14 -145 -85 -350 -172 -46 -20 -89 -40 -95 -45 -5 -5 -28 -15
-50 -23 -64 -24 -314 -135 -395 -177 -42 -21 -102 -49 -135 -63 -33 -14 -99
-44 -147 -66 -48 -23 -90 -41 -94 -41 -7 0 -447 -198 -602 -271 -57 -27 -106
-49 -109 -49 -3 0 -57 -24 -122 -54 -64 -29 -200 -90 -302 -135 -102 -45 -212
-95 -243 -112 -32 -17 -78 -39 -104 -49 -26 -10 -162 -70 -302 -133 -140 -63
-307 -138 -370 -166 -63 -28 -144 -65 -180 -81 -36 -16 -108 -48 -160 -70 -87
-38 -274 -123 -376 -171 -23 -10 -44 -19 -47 -19 -3 0 -57 -25 -121 -55 -63
-30 -119 -55 -124 -55 -5 0 -38 -15 -73 -34 -35 -18 -93 -46 -129 -61 -147
-63 -342 -151 -447 -201 -62 -30 -115 -54 -119 -54 -8 0 -149 -64 -294 -132
-166 -79 -445 -198 -465 -198 -8 0 -15 20 -19 52 -3 29 -8 1235 -12 2681 -6
2646 -6 2657 25 2657 3 0 29 -8 56 -19z"/>
<path d="M11025 3695 c-439 -70 -791 -322 -981 -705 -87 -174 -124 -325 -131
-532 -9 -252 40 -453 168 -688 110 -201 337 -411 559 -517 359 -171 793 -165
1144 15 304 156 533 424 637 746 49 148 63 237 63 396 1 144 -9 219 -44 350
-95 353 -354 661 -694 824 -206 99 -507 145 -721 111z"/>
<path d="M475 2755 c-5 -2 -32 -6 -59 -10 -31 -4 -57 -15 -72 -30 l-24 -24 0
-303 c0 -167 4 -308 8 -313 16 -24 61 -43 123 -54 49 -8 1194 -11 4410 -11
4579 0 4425 -1 4493 43 l26 18 -2 322 -3 322 -27 12 c-14 7 -50 18 -78 23 -48
9 -8769 14 -8795 5z"/>
</g>
</svg>
