<!--?xml version="1.0" encoding="utf-8"?-->
<!-- Generator: Adobe Illustrator 18.0.0, SVG Export Plug-In . SVG Version: 6.00 Build 0)  -->

<svg version="1.1" id="_x32_" xmlns="http://www.w3.org/2000/svg" xmlns:xlink="http://www.w3.org/1999/xlink" x="0px" y="0px" viewBox="0 0 512 512" style="width: 256px; height: 256px; opacity: 1;" xml:space="preserve">
<style type="text/css">
	.st0{fill:#4B4B4B;}
</style>
<g>
	<path class="st0" d="M366.591,327.334c-1.858,1.858-3.596,3.789-5.246,5.769l-177.672-69.814c0.189-2.407,0.314-4.833,0.314-7.289
		c0-2.456-0.125-4.882-0.314-7.289l177.673-69.814c1.65,1.98,3.388,3.911,5.246,5.769c33.264,33.264,87.196,33.264,120.461,0
		c33.264-33.264,33.264-87.197,0-120.461c-33.265-33.264-87.197-33.264-120.461,0c-17.823,17.824-26.084,41.579-24.808,64.911
		l-177.668,69.812c-16.85-21.264-42.883-34.92-72.121-34.92C41.187,164.007,0,205.194,0,256s41.187,91.993,91.993,91.993
		c29.238,0,55.27-13.656,72.12-34.92l177.669,69.812c-1.276,23.332,6.985,47.088,24.808,64.911
		c33.264,33.264,87.196,33.264,120.461,0c33.264-33.264,33.264-87.197,0-120.461C453.787,294.07,399.855,294.07,366.591,327.334z" style="fill: rgb(75, 75, 75);"></path>
</g>
</svg>
