<?xml version="1.0" encoding="UTF-8" standalone="no"?>
<!DOCTYPE svg PUBLIC "-//W3C//DTD SVG 1.1//EN" "http://www.w3.org/Graphics/SVG/1.1/DTD/svg11.dtd">
<svg xmlns="http://www.w3.org/2000/svg" version="1.1" viewBox="0.00 0.00 1024.00 1024.00">
<g stroke-width="2.00" fill="none" stroke-linecap="butt">
<path stroke="#808080" vector-effect="non-scaling-stroke" d="
  M 802.70 152.07
  C 798.05 148.02 792.65 144.80 787.77 140.75
  C 784.01 137.63 779.61 135.09 775.73 131.84
  C 770.98 127.87 766.73 125.29 762.04 121.98
  C 757.04 118.46 751.48 116.12 746.14 113.25
  Q 743.29 111.71 737.14 107.75
  C 729.49 102.81 721.27 99.33 713.60 94.35
  Q 710.78 92.52 707.07 91.21
  C 698.73 88.29 691.58 84.26 683.98 80.52
  C 677.63 77.40 669.84 75.30 662.95 71.85
  C 660.24 70.50 657.66 70.26 654.79 69.71
  Q 651.72 69.11 648.64 68.09
  Q 637.93 64.51 627.20 60.94
  C 623.42 59.68 619.16 59.47 615.13 58.16
  C 609.23 56.25 604.58 55.95 598.79 55.67
  C 596.22 55.55 594.23 54.61 591.86 53.85
  C 587.72 52.51 583.14 52.66 578.80 52.19
  Q 576.41 51.93 571.83 50.59
  Q 566.94 49.17 561.75 49.15
  Q 518.63 49.04 475.50 49.24
  Q 470.70 49.26 466.27 50.89
  C 460.60 52.99 454.21 52.80 448.24 52.77
  C 444.34 52.76 441.21 55.43 437.26 55.72
  C 431.77 56.12 425.68 55.87 420.55 58.04
  Q 418.35 58.96 415.78 59.25
  Q 410.57 59.83 405.70 61.81
  C 403.30 62.79 401.11 62.81 398.63 63.16
  C 394.89 63.70 391.47 65.74 387.58 66.67
  C 384.36 67.45 381.69 68.92 378.52 69.85
  Q 373.03 71.44 371.63 71.96
  C 364.01 74.76 355.84 76.79 348.79 80.14
  C 343.95 82.43 338.45 86.00 333.26 87.12
  Q 329.95 87.83 328.73 88.40
  Q 321.97 91.54 298.22 103.66
  C 292.50 106.57 286.94 110.79 281.00 114.09
  Q 273.94 118.02 270.02 120.70
  Q 257.19 129.46 244.17 137.93
  Q 242.18 139.22 238.01 142.78
  C 233.85 146.33 228.22 149.07 224.45 152.96
  C 218.37 159.24 211.81 166.78 204.35 171.38
  Q 200.79 173.57 197.73 176.48
  Q 188.62 185.12 179.93 194.18
  Q 178.23 195.96 174.13 202.36
  C 170.50 208.01 162.82 213.26 158.76 219.97
  C 155.36 225.56 150.92 229.90 147.40 235.37
  C 144.08 240.51 139.70 244.97 136.59 249.83
  C 131.80 257.31 126.31 264.40 122.10 272.34
  C 118.75 278.65 114.14 284.79 111.22 290.50
  Q 100.80 310.83 90.75 331.35
  Q 89.11 334.69 87.38 339.88
  Q 85.92 344.26 84.04 348.48
  Q 81.12 355.00 79.85 358.91
  Q 73.82 377.51 67.49 396.01
  Q 67.03 397.35 66.47 401.76
  Q 66.17 404.11 64.97 407.09
  C 63.21 411.45 63.76 415.96 61.93 419.99
  C 58.68 427.18 60.84 434.65 58.01 442.00
  C 56.17 446.77 56.35 452.59 55.84 457.64
  C 55.44 461.57 53.13 465.33 53.05 469.25
  Q 52.82 480.62 52.63 492.00
  Q 52.55 497.01 50.98 501.68
  C 48.35 509.53 49.10 520.49 49.72 528.71
  Q 49.87 530.72 51.00 533.61
  Q 52.97 538.64 52.75 544.75
  Q 52.49 552.12 53.13 570.11
  C 53.21 572.48 54.07 574.31 54.87 576.46
  C 57.51 583.58 55.11 591.58 57.74 598.90
  Q 59.87 604.85 60.02 611.24
  Q 60.07 613.55 60.91 615.68
  Q 62.73 620.34 63.50 625.27
  Q 64.12 629.26 65.13 632.01
  Q 68.05 639.93 70.51 648.02
  C 71.29 650.60 73.23 654.99 73.75 658.89
  Q 74.27 662.74 75.01 664.89
  C 77.92 673.32 80.21 682.20 84.00 690.12
  Q 86.55 695.47 89.21 700.76
  C 91.01 704.36 91.38 708.24 93.20 711.98
  C 99.48 724.82 105.50 738.82 113.66 750.56
  Q 121.04 761.17 127.21 772.54
  C 128.94 775.72 131.32 778.61 133.31 781.75
  C 136.84 787.31 141.34 791.82 144.89 797.42
  C 147.06 800.84 149.53 803.29 152.20 806.11
  C 156.93 811.12 160.04 817.43 164.93 822.31
  Q 189.27 846.61 213.60 870.89
  C 217.69 874.97 222.93 877.93 226.93 881.26
  C 231.99 885.47 237.22 888.73 242.58 893.07
  Q 248.38 897.76 255.07 901.14
  C 258.97 903.11 261.69 905.43 264.90 908.05
  C 270.19 912.36 276.00 914.90 281.91 918.03
  Q 285.20 919.76 291.09 923.61
  Q 300.30 929.63 310.64 933.40
  Q 317.94 936.06 321.56 937.82
  C 331.47 942.63 341.11 948.05 351.47 951.62
  Q 369.55 957.86 379.24 960.82
  C 382.27 961.74 385.71 961.81 389.16 963.04
  C 394.08 964.80 398.96 965.01 403.88 966.77
  Q 408.34 968.36 413.08 968.84
  C 417.08 969.25 419.88 971.49 424.21 971.74
  C 428.35 971.97 433.29 971.79 437.21 973.21
  C 440.47 974.39 442.95 975.11 446.65 975.21
  C 452.36 975.37 457.80 975.36 463.27 977.23
  Q 467.82 978.78 474.25 978.81
  Q 522.15 979.04 554.50 978.81
  Q 558.64 978.78 562.53 976.86
  C 563.78 976.24 565.40 975.77 566.50 975.74
  Q 575.35 975.48 584.22 975.13
  C 588.40 974.96 591.17 972.35 595.56 972.29
  Q 601.84 972.21 607.68 970.01
  Q 610.53 968.94 612.97 968.75
  C 617.74 968.37 621.08 968.13 625.56 966.31
  Q 627.56 965.50 630.07 965.27
  Q 634.61 964.84 638.82 963.16
  C 641.89 961.94 644.76 961.34 647.74 960.27
  Q 651.36 958.96 654.45 958.36
  Q 666.40 956.02 677.42 950.85
  Q 681.33 949.02 685.80 947.55
  Q 693.46 945.04 700.52 941.04
  Q 703.61 939.29 712.44 936.39
  Q 721.10 933.55 731.81 926.19
  C 736.78 922.78 741.34 920.52 746.43 917.90
  C 753.50 914.25 759.69 909.85 766.26 905.50
  Q 768.56 903.97 775.55 900.03
  C 782.25 896.25 787.72 891.32 794.04 886.98
  C 800.65 882.44 805.83 876.18 811.91 871.60
  Q 818.96 866.28 820.60 864.82
  C 825.24 860.71 829.58 856.04 834.89 852.66
  C 841.18 848.65 846.08 843.40 850.25 837.26
  C 855.37 829.72 862.38 823.28 868.69 816.73
  C 872.54 812.74 875.05 807.89 878.63 804.09
  C 884.14 798.24 886.98 793.90 890.79 788.39
  C 894.47 783.07 897.49 777.95 901.78 773.17
  Q 903.98 770.72 905.37 768.03
  C 909.39 760.23 914.79 752.92 918.48 745.55
  Q 929.02 724.51 939.56 703.45
  Q 942.70 697.18 944.90 690.55
  Q 949.71 676.03 954.48 661.48
  C 955.43 658.59 957.53 653.47 958.52 649.27
  C 959.00 647.23 959.81 645.71 960.56 643.82
  C 962.43 639.06 961.28 633.97 963.01 628.92
  Q 964.93 623.28 966.93 617.65
  C 968.56 613.04 968.80 609.25 969.07 604.53
  C 969.20 602.33 970.16 600.65 970.92 598.66
  C 973.70 591.37 970.47 582.39 974.21 574.75
  C 975.33 572.45 975.29 571.13 975.32 568.75
  Q 975.90 525.13 975.63 481.50
  Q 975.59 475.29 974.11 470.32
  Q 972.86 466.16 972.67 464.03
  C 972.21 458.90 972.55 451.84 970.80 446.47
  Q 969.53 442.60 969.29 440.37
  C 968.76 435.26 968.91 429.85 967.10 424.87
  C 965.42 420.26 965.14 415.82 963.71 411.25
  C 962.06 405.96 961.38 400.94 959.74 395.81
  C 958.63 392.32 958.31 388.34 957.35 385.43
  C 954.38 376.48 951.87 367.45 947.90 358.78
  Q 945.83 354.28 944.27 349.58
  C 942.43 344.06 939.77 339.09 937.84 333.63
  Q 935.49 326.95 933.76 323.41
  Q 925.33 306.09 916.46 288.99
  C 913.83 283.92 909.91 278.83 906.94 273.45
  Q 903.16 266.64 900.75 263.12
  Q 892.31 250.77 884.14 238.24
  C 880.93 233.30 876.92 229.58 873.81 224.37
  C 870.75 219.24 866.12 215.22 862.10 211.00
  C 858.07 206.75 855.21 200.68 851.40 196.85
  Q 837.32 182.68 823.11 168.64
  Q 818.86 164.44 814.55 161.61
  C 809.67 158.40 806.69 155.54 802.70 152.07"
/>
<path stroke="#808080" vector-effect="non-scaling-stroke" d="
  M 633.03 394.33
  C 629.70 392.30 625.39 390.17 622.05 387.92
  Q 616.14 383.96 610.60 380.89
  C 601.16 375.67 592.74 369.18 583.38 363.88
  C 577.43 360.51 572.55 357.23 567.22 353.66
  Q 562.71 350.65 554.97 346.23
  C 549.51 343.10 544.36 339.45 538.91 336.52
  C 531.50 332.54 524.95 327.66 517.98 323.19
  Q 517.96 323.17 507.80 317.18
  Q 503.54 314.67 497.70 310.80
  C 494.74 308.84 489.96 306.88 486.35 304.38
  Q 474.66 296.29 462.36 289.20
  C 456.68 285.93 451.60 282.37 446.30 278.82
  C 441.20 275.39 434.81 272.36 429.27 268.67
  C 422.73 264.32 415.84 260.95 409.29 256.53
  Q 393.35 245.77 377.27 235.23
  C 374.23 233.24 366.38 228.97 362.92 230.88
  C 360.30 232.33 352.74 238.88 352.74 242.50
  Q 352.75 505.93 352.74 769.36
  C 352.74 775.23 353.67 778.90 357.63 782.79
  C 366.11 791.13 377.10 785.67 384.75 779.76
  C 387.81 777.39 391.13 775.76 394.21 773.47
  C 399.67 769.40 405.84 766.87 411.45 763.06
  C 417.10 759.22 423.20 756.50 428.85 752.65
  C 435.11 748.39 441.79 745.40 447.96 741.02
  C 450.93 738.91 454.08 737.12 457.08 735.02
  C 464.43 729.85 472.82 726.98 480.18 721.97
  Q 484.33 719.14 486.93 717.71
  Q 496.76 712.27 505.99 705.86
  Q 512.20 701.54 517.08 698.96
  C 523.09 695.79 529.14 693.11 534.61 689.03
  C 538.92 685.82 544.18 683.63 548.94 681.17
  C 555.19 677.94 560.83 673.93 566.61 669.96
  C 573.06 665.53 579.76 662.26 586.64 658.76
  C 590.39 656.86 593.19 654.26 596.37 651.61
  C 601.22 647.58 607.43 645.21 612.75 641.62
  C 621.35 635.82 630.76 631.99 639.35 626.21
  C 645.17 622.29 650.85 618.21 657.08 615.00
  C 662.67 612.13 668.42 609.60 673.64 605.75
  C 678.73 601.99 684.56 599.67 689.80 596.04
  C 695.06 592.39 700.74 589.95 706.00 586.40
  Q 711.28 582.82 714.74 581.03
  C 721.06 577.75 726.63 574.92 733.06 570.72
  C 738.86 566.93 744.65 564.06 750.84 560.04
  C 757.76 555.54 765.85 552.53 772.98 547.65
  Q 778.38 543.95 781.98 542.11
  Q 789.86 538.09 797.80 534.17
  C 806.17 530.02 810.72 523.35 817.22 517.13
  Q 818.36 516.04 817.65 514.85
  C 815.55 511.36 814.04 507.55 811.38 504.69
  Q 807.48 500.51 803.28 498.26
  Q 793.86 493.19 788.10 489.37
  C 783.55 486.36 778.63 484.21 774.05 481.12
  Q 768.40 477.32 762.71 473.56
  C 757.88 470.35 751.80 467.38 746.53 463.92
  C 739.53 459.33 733.07 455.97 725.17 450.88
  C 720.59 447.93 715.48 445.72 711.16 442.67
  Q 700.70 435.30 689.55 429.03
  C 680.79 424.11 672.92 418.15 664.00 412.90
  Q 648.44 403.74 633.03 394.33"
/>
</g>
<path fill="#ffffff" d="
  M 316.93 982.58
  Q 296.62 974.10 285.83 968.44
  Q 260.06 954.91 235.26 939.70
  C 233.48 938.61 231.65 936.84 229.46 935.67
  C 225.36 933.48 222.11 930.38 218.19 928.18
  C 215.72 926.79 213.73 925.68 211.62 923.52
  Q 207.93 919.74 203.35 917.15
  C 196.87 913.49 193.21 907.05 186.81 903.83
  Q 182.96 901.91 181.92 900.86
  Q 156.61 875.65 131.42 850.33
  C 128.88 847.77 127.44 843.26 124.69 840.29
  C 120.23 835.48 115.35 831.23 111.71 825.61
  C 108.02 819.92 103.30 814.99 99.81 809.59
  Q 97.45 805.92 94.18 801.06
  C 78.44 777.65 64.53 752.38 53.51 726.11
  Q 40.21 694.44 30.19 662.86
  Q 27.78 655.27 25.21 645.00
  Q 21.40 629.71 16.01 598.38
  C 14.64 590.46 13.71 579.96 12.26 570.75
  Q 11.36 565.05 10.93 559.68
  C 10.25 550.97 8.88 542.31 8.88 533.75
  C 8.88 520.15 8.24 506.44 9.68 492.84
  C 10.42 485.89 10.56 479.00 11.71 472.10
  Q 13.17 463.41 13.96 454.63
  C 15.08 441.98 17.85 429.80 19.61 417.37
  Q 20.10 413.88 23.17 402.30
  Q 30.58 374.40 39.61 346.99
  Q 42.82 337.26 46.54 328.24
  Q 60.72 293.85 78.37 261.08
  Q 86.69 245.62 97.99 228.03
  Q 102.27 221.37 106.71 216.02
  C 109.63 212.51 111.71 208.48 114.57 204.82
  C 117.00 201.73 118.78 197.30 121.29 194.79
  Q 131.58 184.48 141.72 174.03
  Q 143.36 172.35 145.29 169.18
  Q 147.93 164.83 152.71 159.96
  Q 170.57 141.80 180.87 132.72
  C 182.53 131.26 184.53 130.96 186.02 129.56
  C 191.48 124.45 196.92 118.25 203.25 114.29
  Q 206.16 112.46 208.34 110.71
  Q 226.63 96.05 246.35 83.41
  C 256.05 77.19 267.96 70.63 278.87 64.40
  C 292.94 56.35 308.33 50.41 323.24 44.21
  C 326.56 42.83 330.65 41.84 333.48 40.68
  Q 355.80 31.51 366.75 28.33
  Q 382.22 23.82 415.26 16.31
  C 424.21 14.28 434.05 13.20 443.48 11.48
  C 451.32 10.06 459.24 10.25 467.09 8.76
  C 473.67 7.51 480.39 7.49 486.73 6.39
  Q 493.14 5.27 495.25 5.24
  C 513.19 4.97 531.65 4.24 549.50 6.45
  Q 568.49 8.81 587.49 11.02
  C 591.51 11.49 595.73 12.58 599.36 13.07
  Q 621.48 16.04 629.64 18.35
  Q 643.33 22.23 657.03 26.10
  Q 666.72 28.84 675.97 32.43
  C 695.04 39.83 712.28 46.49 732.09 56.65
  Q 746.33 63.94 749.88 65.80
  Q 773.18 77.98 794.80 93.01
  Q 796.41 94.13 800.43 96.57
  C 804.12 98.80 807.02 101.56 810.88 103.57
  C 817.69 107.11 821.43 113.86 828.32 117.47
  C 835.03 120.99 838.88 127.80 845.69 131.41
  Q 849.08 133.21 850.44 134.56
  Q 865.62 149.51 880.65 164.61
  Q 884.39 168.37 886.92 172.99
  Q 888.45 175.79 890.18 177.54
  Q 897.28 184.72 904.26 191.94
  C 906.35 194.11 908.13 198.40 910.37 201.30
  C 913.32 205.13 915.33 209.42 918.49 212.91
  C 920.54 215.17 922.41 217.02 923.95 219.81
  C 926.02 223.58 929.27 227.73 931.02 230.38
  Q 947.26 255.03 954.44 269.31
  Q 960.76 281.87 967.12 294.42
  C 974.58 309.16 980.72 323.60 985.86 338.29
  C 990.16 350.57 995.26 365.74 998.89 379.15
  Q 1004.57 400.20 1008.96 421.56
  C 1010.37 428.39 1011.03 436.16 1012.31 443.50
  Q 1013.91 452.69 1014.51 458.57
  C 1015.20 465.32 1016.10 472.05 1016.11 478.82
  Q 1016.16 516.27 1016.17 553.71
  Q 1016.17 561.09 1015.37 569.49
  C 1014.69 576.56 1014.38 583.25 1012.99 590.42
  C 1011.27 599.32 1010.49 609.06 1008.89 617.13
  C 1005.31 635.12 1001.68 653.25 995.76 670.73
  Q 988.61 691.82 981.48 712.93
  Q 980.14 716.89 978.41 720.71
  Q 962.48 755.73 942.63 788.68
  C 940.42 792.34 937.16 796.46 934.77 800.64
  C 931.98 805.51 927.33 808.54 924.97 813.26
  C 922.85 817.51 919.76 820.31 917.61 824.46
  C 914.98 829.52 910.77 833.29 906.84 837.29
  C 904.33 839.86 903.41 843.91 901.54 845.79
  Q 891.74 855.66 882.01 865.58
  Q 880.65 866.97 879.61 869.29
  Q 876.40 876.48 869.06 879.58
  C 867.27 880.33 866.19 881.37 864.90 882.64
  Q 854.44 892.94 844.08 903.34
  C 841.30 906.13 836.96 907.51 833.97 910.24
  C 829.94 913.92 826.23 918.38 821.34 920.92
  Q 818.87 922.21 816.89 924.00
  Q 810.50 929.76 803.02 933.98
  Q 795.13 938.43 792.72 940.00
  C 770.49 954.44 746.95 968.05 722.55 978.48
  C 712.82 982.64 703.07 986.96 693.31 990.35
  Q 656.75 1003.07 618.90 1011.18
  Q 612.17 1012.62 600.22 1014.24
  C 591.84 1015.38 582.80 1017.23 575.21 1018.01
  C 563.05 1019.25 550.34 1019.27 538.79 1020.33
  C 521.68 1021.92 506.36 1022.40 489.48 1020.15
  Q 483.90 1019.41 478.47 1019.44
  Q 460.70 1019.56 447.64 1017.30
  Q 435.26 1015.15 427.25 1014.16
  Q 420.55 1013.34 414.87 1012.14
  C 409.37 1010.97 403.72 1010.16 398.44 1008.80
  C 386.05 1005.59 372.48 1002.52 361.32 999.02
  Q 341.05 992.65 316.93 982.58
  Z
  M 802.70 152.07
  C 798.05 148.02 792.65 144.80 787.77 140.75
  C 784.01 137.63 779.61 135.09 775.73 131.84
  C 770.98 127.87 766.73 125.29 762.04 121.98
  C 757.04 118.46 751.48 116.12 746.14 113.25
  Q 743.29 111.71 737.14 107.75
  C 729.49 102.81 721.27 99.33 713.60 94.35
  Q 710.78 92.52 707.07 91.21
  C 698.73 88.29 691.58 84.26 683.98 80.52
  C 677.63 77.40 669.84 75.30 662.95 71.85
  C 660.24 70.50 657.66 70.26 654.79 69.71
  Q 651.72 69.11 648.64 68.09
  Q 637.93 64.51 627.20 60.94
  C 623.42 59.68 619.16 59.47 615.13 58.16
  C 609.23 56.25 604.58 55.95 598.79 55.67
  C 596.22 55.55 594.23 54.61 591.86 53.85
  C 587.72 52.51 583.14 52.66 578.80 52.19
  Q 576.41 51.93 571.83 50.59
  Q 566.94 49.17 561.75 49.15
  Q 518.63 49.04 475.50 49.24
  Q 470.70 49.26 466.27 50.89
  C 460.60 52.99 454.21 52.80 448.24 52.77
  C 444.34 52.76 441.21 55.43 437.26 55.72
  C 431.77 56.12 425.68 55.87 420.55 58.04
  Q 418.35 58.96 415.78 59.25
  Q 410.57 59.83 405.70 61.81
  C 403.30 62.79 401.11 62.81 398.63 63.16
  C 394.89 63.70 391.47 65.74 387.58 66.67
  C 384.36 67.45 381.69 68.92 378.52 69.85
  Q 373.03 71.44 371.63 71.96
  C 364.01 74.76 355.84 76.79 348.79 80.14
  C 343.95 82.43 338.45 86.00 333.26 87.12
  Q 329.95 87.83 328.73 88.40
  Q 321.97 91.54 298.22 103.66
  C 292.50 106.57 286.94 110.79 281.00 114.09
  Q 273.94 118.02 270.02 120.70
  Q 257.19 129.46 244.17 137.93
  Q 242.18 139.22 238.01 142.78
  C 233.85 146.33 228.22 149.07 224.45 152.96
  C 218.37 159.24 211.81 166.78 204.35 171.38
  Q 200.79 173.57 197.73 176.48
  Q 188.62 185.12 179.93 194.18
  Q 178.23 195.96 174.13 202.36
  C 170.50 208.01 162.82 213.26 158.76 219.97
  C 155.36 225.56 150.92 229.90 147.40 235.37
  C 144.08 240.51 139.70 244.97 136.59 249.83
  C 131.80 257.31 126.31 264.40 122.10 272.34
  C 118.75 278.65 114.14 284.79 111.22 290.50
  Q 100.80 310.83 90.75 331.35
  Q 89.11 334.69 87.38 339.88
  Q 85.92 344.26 84.04 348.48
  Q 81.12 355.00 79.85 358.91
  Q 73.82 377.51 67.49 396.01
  Q 67.03 397.35 66.47 401.76
  Q 66.17 404.11 64.97 407.09
  C 63.21 411.45 63.76 415.96 61.93 419.99
  C 58.68 427.18 60.84 434.65 58.01 442.00
  C 56.17 446.77 56.35 452.59 55.84 457.64
  C 55.44 461.57 53.13 465.33 53.05 469.25
  Q 52.82 480.62 52.63 492.00
  Q 52.55 497.01 50.98 501.68
  C 48.35 509.53 49.10 520.49 49.72 528.71
  Q 49.87 530.72 51.00 533.61
  Q 52.97 538.64 52.75 544.75
  Q 52.49 552.12 53.13 570.11
  C 53.21 572.48 54.07 574.31 54.87 576.46
  C 57.51 583.58 55.11 591.58 57.74 598.90
  Q 59.87 604.85 60.02 611.24
  Q 60.07 613.55 60.91 615.68
  Q 62.73 620.34 63.50 625.27
  Q 64.12 629.26 65.13 632.01
  Q 68.05 639.93 70.51 648.02
  C 71.29 650.60 73.23 654.99 73.75 658.89
  Q 74.27 662.74 75.01 664.89
  C 77.92 673.32 80.21 682.20 84.00 690.12
  Q 86.55 695.47 89.21 700.76
  C 91.01 704.36 91.38 708.24 93.20 711.98
  C 99.48 724.82 105.50 738.82 113.66 750.56
  Q 121.04 761.17 127.21 772.54
  C 128.94 775.72 131.32 778.61 133.31 781.75
  C 136.84 787.31 141.34 791.82 144.89 797.42
  C 147.06 800.84 149.53 803.29 152.20 806.11
  C 156.93 811.12 160.04 817.43 164.93 822.31
  Q 189.27 846.61 213.60 870.89
  C 217.69 874.97 222.93 877.93 226.93 881.26
  C 231.99 885.47 237.22 888.73 242.58 893.07
  Q 248.38 897.76 255.07 901.14
  C 258.97 903.11 261.69 905.43 264.90 908.05
  C 270.19 912.36 276.00 914.90 281.91 918.03
  Q 285.20 919.76 291.09 923.61
  Q 300.30 929.63 310.64 933.40
  Q 317.94 936.06 321.56 937.82
  C 331.47 942.63 341.11 948.05 351.47 951.62
  Q 369.55 957.86 379.24 960.82
  C 382.27 961.74 385.71 961.81 389.16 963.04
  C 394.08 964.80 398.96 965.01 403.88 966.77
  Q 408.34 968.36 413.08 968.84
  C 417.08 969.25 419.88 971.49 424.21 971.74
  C 428.35 971.97 433.29 971.79 437.21 973.21
  C 440.47 974.39 442.95 975.11 446.65 975.21
  C 452.36 975.37 457.80 975.36 463.27 977.23
  Q 467.82 978.78 474.25 978.81
  Q 522.15 979.04 554.50 978.81
  Q 558.64 978.78 562.53 976.86
  C 563.78 976.24 565.40 975.77 566.50 975.74
  Q 575.35 975.48 584.22 975.13
  C 588.40 974.96 591.17 972.35 595.56 972.29
  Q 601.84 972.21 607.68 970.01
  Q 610.53 968.94 612.97 968.75
  C 617.74 968.37 621.08 968.13 625.56 966.31
  Q 627.56 965.50 630.07 965.27
  Q 634.61 964.84 638.82 963.16
  C 641.89 961.94 644.76 961.34 647.74 960.27
  Q 651.36 958.96 654.45 958.36
  Q 666.40 956.02 677.42 950.85
  Q 681.33 949.02 685.80 947.55
  Q 693.46 945.04 700.52 941.04
  Q 703.61 939.29 712.44 936.39
  Q 721.10 933.55 731.81 926.19
  C 736.78 922.78 741.34 920.52 746.43 917.90
  C 753.50 914.25 759.69 909.85 766.26 905.50
  Q 768.56 903.97 775.55 900.03
  C 782.25 896.25 787.72 891.32 794.04 886.98
  C 800.65 882.44 805.83 876.18 811.91 871.60
  Q 818.96 866.28 820.60 864.82
  C 825.24 860.71 829.58 856.04 834.89 852.66
  C 841.18 848.65 846.08 843.40 850.25 837.26
  C 855.37 829.72 862.38 823.28 868.69 816.73
  C 872.54 812.74 875.05 807.89 878.63 804.09
  C 884.14 798.24 886.98 793.90 890.79 788.39
  C 894.47 783.07 897.49 777.95 901.78 773.17
  Q 903.98 770.72 905.37 768.03
  C 909.39 760.23 914.79 752.92 918.48 745.55
  Q 929.02 724.51 939.56 703.45
  Q 942.70 697.18 944.90 690.55
  Q 949.71 676.03 954.48 661.48
  C 955.43 658.59 957.53 653.47 958.52 649.27
  C 959.00 647.23 959.81 645.71 960.56 643.82
  C 962.43 639.06 961.28 633.97 963.01 628.92
  Q 964.93 623.28 966.93 617.65
  C 968.56 613.04 968.80 609.25 969.07 604.53
  C 969.20 602.33 970.16 600.65 970.92 598.66
  C 973.70 591.37 970.47 582.39 974.21 574.75
  C 975.33 572.45 975.29 571.13 975.32 568.75
  Q 975.90 525.13 975.63 481.50
  Q 975.59 475.29 974.11 470.32
  Q 972.86 466.16 972.67 464.03
  C 972.21 458.90 972.55 451.84 970.80 446.47
  Q 969.53 442.60 969.29 440.37
  C 968.76 435.26 968.91 429.85 967.10 424.87
  C 965.42 420.26 965.14 415.82 963.71 411.25
  C 962.06 405.96 961.38 400.94 959.74 395.81
  C 958.63 392.32 958.31 388.34 957.35 385.43
  C 954.38 376.48 951.87 367.45 947.90 358.78
  Q 945.83 354.28 944.27 349.58
  C 942.43 344.06 939.77 339.09 937.84 333.63
  Q 935.49 326.95 933.76 323.41
  Q 925.33 306.09 916.46 288.99
  C 913.83 283.92 909.91 278.83 906.94 273.45
  Q 903.16 266.64 900.75 263.12
  Q 892.31 250.77 884.14 238.24
  C 880.93 233.30 876.92 229.58 873.81 224.37
  C 870.75 219.24 866.12 215.22 862.10 211.00
  C 858.07 206.75 855.21 200.68 851.40 196.85
  Q 837.32 182.68 823.11 168.64
  Q 818.86 164.44 814.55 161.61
  C 809.67 158.40 806.69 155.54 802.70 152.07
  Z"
/>
<path fill="#000000" d="
  M 802.70 152.07
  C 806.69 155.54 809.67 158.40 814.55 161.61
  Q 818.86 164.44 823.11 168.64
  Q 837.32 182.68 851.40 196.85
  C 855.21 200.68 858.07 206.75 862.10 211.00
  C 866.12 215.22 870.75 219.24 873.81 224.37
  C 876.92 229.58 880.93 233.30 884.14 238.24
  Q 892.31 250.77 900.75 263.12
  Q 903.16 266.64 906.94 273.45
  C 909.91 278.83 913.83 283.92 916.46 288.99
  Q 925.33 306.09 933.76 323.41
  Q 935.49 326.95 937.84 333.63
  C 939.77 339.09 942.43 344.06 944.27 349.58
  Q 945.83 354.28 947.90 358.78
  C 951.87 367.45 954.38 376.48 957.35 385.43
  C 958.31 388.34 958.63 392.32 959.74 395.81
  C 961.38 400.94 962.06 405.96 963.71 411.25
  C 965.14 415.82 965.42 420.26 967.10 424.87
  C 968.91 429.85 968.76 435.26 969.29 440.37
  Q 969.53 442.60 970.80 446.47
  C 972.55 451.84 972.21 458.90 972.67 464.03
  Q 972.86 466.16 974.11 470.32
  Q 975.59 475.29 975.63 481.50
  Q 975.90 525.13 975.32 568.75
  C 975.29 571.13 975.33 572.45 974.21 574.75
  C 970.47 582.39 973.70 591.37 970.92 598.66
  C 970.16 600.65 969.20 602.33 969.07 604.53
  C 968.80 609.25 968.56 613.04 966.93 617.65
  Q 964.93 623.28 963.01 628.92
  C 961.28 633.97 962.43 639.06 960.56 643.82
  C 959.81 645.71 959.00 647.23 958.52 649.27
  C 957.53 653.47 955.43 658.59 954.48 661.48
  Q 949.71 676.03 944.90 690.55
  Q 942.70 697.18 939.56 703.45
  Q 929.02 724.51 918.48 745.55
  C 914.79 752.92 909.39 760.23 905.37 768.03
  Q 903.98 770.72 901.78 773.17
  C 897.49 777.95 894.47 783.07 890.79 788.39
  C 886.98 793.90 884.14 798.24 878.63 804.09
  C 875.05 807.89 872.54 812.74 868.69 816.73
  C 862.38 823.28 855.37 829.72 850.25 837.26
  C 846.08 843.40 841.18 848.65 834.89 852.66
  C 829.58 856.04 825.24 860.71 820.60 864.82
  Q 818.96 866.28 811.91 871.60
  C 805.83 876.18 800.65 882.44 794.04 886.98
  C 787.72 891.32 782.25 896.25 775.55 900.03
  Q 768.56 903.97 766.26 905.50
  C 759.69 909.85 753.50 914.25 746.43 917.90
  C 741.34 920.52 736.78 922.78 731.81 926.19
  Q 721.10 933.55 712.44 936.39
  Q 703.61 939.29 700.52 941.04
  Q 693.46 945.04 685.80 947.55
  Q 681.33 949.02 677.42 950.85
  Q 666.40 956.02 654.45 958.36
  Q 651.36 958.96 647.74 960.27
  C 644.76 961.34 641.89 961.94 638.82 963.16
  Q 634.61 964.84 630.07 965.27
  Q 627.56 965.50 625.56 966.31
  C 621.08 968.13 617.74 968.37 612.97 968.75
  Q 610.53 968.94 607.68 970.01
  Q 601.84 972.21 595.56 972.29
  C 591.17 972.35 588.40 974.96 584.22 975.13
  Q 575.35 975.48 566.50 975.74
  C 565.40 975.77 563.78 976.24 562.53 976.86
  Q 558.64 978.78 554.50 978.81
  Q 522.15 979.04 474.25 978.81
  Q 467.82 978.78 463.27 977.23
  C 457.80 975.36 452.36 975.37 446.65 975.21
  C 442.95 975.11 440.47 974.39 437.21 973.21
  C 433.29 971.79 428.35 971.97 424.21 971.74
  C 419.88 971.49 417.08 969.25 413.08 968.84
  Q 408.34 968.36 403.88 966.77
  C 398.96 965.01 394.08 964.80 389.16 963.04
  C 385.71 961.81 382.27 961.74 379.24 960.82
  Q 369.55 957.86 351.47 951.62
  C 341.11 948.05 331.47 942.63 321.56 937.82
  Q 317.94 936.06 310.64 933.40
  Q 300.30 929.63 291.09 923.61
  Q 285.20 919.76 281.91 918.03
  C 276.00 914.90 270.19 912.36 264.90 908.05
  C 261.69 905.43 258.97 903.11 255.07 901.14
  Q 248.38 897.76 242.58 893.07
  C 237.22 888.73 231.99 885.47 226.93 881.26
  C 222.93 877.93 217.69 874.97 213.60 870.89
  Q 189.27 846.61 164.93 822.31
  C 160.04 817.43 156.93 811.12 152.20 806.11
  C 149.53 803.29 147.06 800.84 144.89 797.42
  C 141.34 791.82 136.84 787.31 133.31 781.75
  C 131.32 778.61 128.94 775.72 127.21 772.54
  Q 121.04 761.17 113.66 750.56
  C 105.50 738.82 99.48 724.82 93.20 711.98
  C 91.38 708.24 91.01 704.36 89.21 700.76
  Q 86.55 695.47 84.00 690.12
  C 80.21 682.20 77.92 673.32 75.01 664.89
  Q 74.27 662.74 73.75 658.89
  C 73.23 654.99 71.29 650.60 70.51 648.02
  Q 68.05 639.93 65.13 632.01
  Q 64.12 629.26 63.50 625.27
  Q 62.73 620.34 60.91 615.68
  Q 60.07 613.55 60.02 611.24
  Q 59.87 604.85 57.74 598.90
  C 55.11 591.58 57.51 583.58 54.87 576.46
  C 54.07 574.31 53.21 572.48 53.13 570.11
  Q 52.49 552.12 52.75 544.75
  Q 52.97 538.64 51.00 533.61
  Q 49.87 530.72 49.72 528.71
  C 49.10 520.49 48.35 509.53 50.98 501.68
  Q 52.55 497.01 52.63 492.00
  Q 52.82 480.62 53.05 469.25
  C 53.13 465.33 55.44 461.57 55.84 457.64
  C 56.35 452.59 56.17 446.77 58.01 442.00
  C 60.84 434.65 58.68 427.18 61.93 419.99
  C 63.76 415.96 63.21 411.45 64.97 407.09
  Q 66.17 404.11 66.47 401.76
  Q 67.03 397.35 67.49 396.01
  Q 73.82 377.51 79.85 358.91
  Q 81.12 355.00 84.04 348.48
  Q 85.92 344.26 87.38 339.88
  Q 89.11 334.69 90.75 331.35
  Q 100.80 310.83 111.22 290.50
  C 114.14 284.79 118.75 278.65 122.10 272.34
  C 126.31 264.40 131.80 257.31 136.59 249.83
  C 139.70 244.97 144.08 240.51 147.40 235.37
  C 150.92 229.90 155.36 225.56 158.76 219.97
  C 162.82 213.26 170.50 208.01 174.13 202.36
  Q 178.23 195.96 179.93 194.18
  Q 188.62 185.12 197.73 176.48
  Q 200.79 173.57 204.35 171.38
  C 211.81 166.78 218.37 159.24 224.45 152.96
  C 228.22 149.07 233.85 146.33 238.01 142.78
  Q 242.18 139.22 244.17 137.93
  Q 257.19 129.46 270.02 120.70
  Q 273.94 118.02 281.00 114.09
  C 286.94 110.79 292.50 106.57 298.22 103.66
  Q 321.97 91.54 328.73 88.40
  Q 329.95 87.83 333.26 87.12
  C 338.45 86.00 343.95 82.43 348.79 80.14
  C 355.84 76.79 364.01 74.76 371.63 71.96
  Q 373.03 71.44 378.52 69.85
  C 381.69 68.92 384.36 67.45 387.58 66.67
  C 391.47 65.74 394.89 63.70 398.63 63.16
  C 401.11 62.81 403.30 62.79 405.70 61.81
  Q 410.57 59.83 415.78 59.25
  Q 418.35 58.96 420.55 58.04
  C 425.68 55.87 431.77 56.12 437.26 55.72
  C 441.21 55.43 444.34 52.76 448.24 52.77
  C 454.21 52.80 460.60 52.99 466.27 50.89
  Q 470.70 49.26 475.50 49.24
  Q 518.63 49.04 561.75 49.15
  Q 566.94 49.17 571.83 50.59
  Q 576.41 51.93 578.80 52.19
  C 583.14 52.66 587.72 52.51 591.86 53.85
  C 594.23 54.61 596.22 55.55 598.79 55.67
  C 604.58 55.95 609.23 56.25 615.13 58.16
  C 619.16 59.47 623.42 59.68 627.20 60.94
  Q 637.93 64.51 648.64 68.09
  Q 651.72 69.11 654.79 69.71
  C 657.66 70.26 660.24 70.50 662.95 71.85
  C 669.84 75.30 677.63 77.40 683.98 80.52
  C 691.58 84.26 698.73 88.29 707.07 91.21
  Q 710.78 92.52 713.60 94.35
  C 721.27 99.33 729.49 102.81 737.14 107.75
  Q 743.29 111.71 746.14 113.25
  C 751.48 116.12 757.04 118.46 762.04 121.98
  C 766.73 125.29 770.98 127.87 775.73 131.84
  C 779.61 135.09 784.01 137.63 787.77 140.75
  C 792.65 144.80 798.05 148.02 802.70 152.07
  Z
  M 633.03 394.33
  C 629.70 392.30 625.39 390.17 622.05 387.92
  Q 616.14 383.96 610.60 380.89
  C 601.16 375.67 592.74 369.18 583.38 363.88
  C 577.43 360.51 572.55 357.23 567.22 353.66
  Q 562.71 350.65 554.97 346.23
  C 549.51 343.10 544.36 339.45 538.91 336.52
  C 531.50 332.54 524.95 327.66 517.98 323.19
  Q 517.96 323.17 507.80 317.18
  Q 503.54 314.67 497.70 310.80
  C 494.74 308.84 489.96 306.88 486.35 304.38
  Q 474.66 296.29 462.36 289.20
  C 456.68 285.93 451.60 282.37 446.30 278.82
  C 441.20 275.39 434.81 272.36 429.27 268.67
  C 422.73 264.32 415.84 260.95 409.29 256.53
  Q 393.35 245.77 377.27 235.23
  C 374.23 233.24 366.38 228.97 362.92 230.88
  C 360.30 232.33 352.74 238.88 352.74 242.50
  Q 352.75 505.93 352.74 769.36
  C 352.74 775.23 353.67 778.90 357.63 782.79
  C 366.11 791.13 377.10 785.67 384.75 779.76
  C 387.81 777.39 391.13 775.76 394.21 773.47
  C 399.67 769.40 405.84 766.87 411.45 763.06
  C 417.10 759.22 423.20 756.50 428.85 752.65
  C 435.11 748.39 441.79 745.40 447.96 741.02
  C 450.93 738.91 454.08 737.12 457.08 735.02
  C 464.43 729.85 472.82 726.98 480.18 721.97
  Q 484.33 719.14 486.93 717.71
  Q 496.76 712.27 505.99 705.86
  Q 512.20 701.54 517.08 698.96
  C 523.09 695.79 529.14 693.11 534.61 689.03
  C 538.92 685.82 544.18 683.63 548.94 681.17
  C 555.19 677.94 560.83 673.93 566.61 669.96
  C 573.06 665.53 579.76 662.26 586.64 658.76
  C 590.39 656.86 593.19 654.26 596.37 651.61
  C 601.22 647.58 607.43 645.21 612.75 641.62
  C 621.35 635.82 630.76 631.99 639.35 626.21
  C 645.17 622.29 650.85 618.21 657.08 615.00
  C 662.67 612.13 668.42 609.60 673.64 605.75
  C 678.73 601.99 684.56 599.67 689.80 596.04
  C 695.06 592.39 700.74 589.95 706.00 586.40
  Q 711.28 582.82 714.74 581.03
  C 721.06 577.75 726.63 574.92 733.06 570.72
  C 738.86 566.93 744.65 564.06 750.84 560.04
  C 757.76 555.54 765.85 552.53 772.98 547.65
  Q 778.38 543.95 781.98 542.11
  Q 789.86 538.09 797.80 534.17
  C 806.17 530.02 810.72 523.35 817.22 517.13
  Q 818.36 516.04 817.65 514.85
  C 815.55 511.36 814.04 507.55 811.38 504.69
  Q 807.48 500.51 803.28 498.26
  Q 793.86 493.19 788.10 489.37
  C 783.55 486.36 778.63 484.21 774.05 481.12
  Q 768.40 477.32 762.71 473.56
  C 757.88 470.35 751.80 467.38 746.53 463.92
  C 739.53 459.33 733.07 455.97 725.17 450.88
  C 720.59 447.93 715.48 445.72 711.16 442.67
  Q 700.70 435.30 689.55 429.03
  C 680.79 424.11 672.92 418.15 664.00 412.90
  Q 648.44 403.74 633.03 394.33
  Z"
/>
<path fill="#ffffff" d="
  M 633.03 394.33
  Q 648.44 403.74 664.00 412.90
  C 672.92 418.15 680.79 424.11 689.55 429.03
  Q 700.70 435.30 711.16 442.67
  C 715.48 445.72 720.59 447.93 725.17 450.88
  C 733.07 455.97 739.53 459.33 746.53 463.92
  C 751.80 467.38 757.88 470.35 762.71 473.56
  Q 768.40 477.32 774.05 481.12
  C 778.63 484.21 783.55 486.36 788.10 489.37
  Q 793.86 493.19 803.28 498.26
  Q 807.48 500.51 811.38 504.69
  C 814.04 507.55 815.55 511.36 817.65 514.85
  Q 818.36 516.04 817.22 517.13
  C 810.72 523.35 806.17 530.02 797.80 534.17
  Q 789.86 538.09 781.98 542.11
  Q 778.38 543.95 772.98 547.65
  C 765.85 552.53 757.76 555.54 750.84 560.04
  C 744.65 564.06 738.86 566.93 733.06 570.72
  C 726.63 574.92 721.06 577.75 714.74 581.03
  Q 711.28 582.82 706.00 586.40
  C 700.74 589.95 695.06 592.39 689.80 596.04
  C 684.56 599.67 678.73 601.99 673.64 605.75
  C 668.42 609.60 662.67 612.13 657.08 615.00
  C 650.85 618.21 645.17 622.29 639.35 626.21
  C 630.76 631.99 621.35 635.82 612.75 641.62
  C 607.43 645.21 601.22 647.58 596.37 651.61
  C 593.19 654.26 590.39 656.86 586.64 658.76
  C 579.76 662.26 573.06 665.53 566.61 669.96
  C 560.83 673.93 555.19 677.94 548.94 681.17
  C 544.18 683.63 538.92 685.82 534.61 689.03
  C 529.14 693.11 523.09 695.79 517.08 698.96
  Q 512.20 701.54 505.99 705.86
  Q 496.76 712.27 486.93 717.71
  Q 484.33 719.14 480.18 721.97
  C 472.82 726.98 464.43 729.85 457.08 735.02
  C 454.08 737.12 450.93 738.91 447.96 741.02
  C 441.79 745.40 435.11 748.39 428.85 752.65
  C 423.20 756.50 417.10 759.22 411.45 763.06
  C 405.84 766.87 399.67 769.40 394.21 773.47
  C 391.13 775.76 387.81 777.39 384.75 779.76
  C 377.10 785.67 366.11 791.13 357.63 782.79
  C 353.67 778.90 352.74 775.23 352.74 769.36
  Q 352.75 505.93 352.74 242.50
  C 352.74 238.88 360.30 232.33 362.92 230.88
  C 366.38 228.97 374.23 233.24 377.27 235.23
  Q 393.35 245.77 409.29 256.53
  C 415.84 260.95 422.73 264.32 429.27 268.67
  C 434.81 272.36 441.20 275.39 446.30 278.82
  C 451.60 282.37 456.68 285.93 462.36 289.20
  Q 474.66 296.29 486.35 304.38
  C 489.96 306.88 494.74 308.84 497.70 310.80
  Q 503.54 314.67 507.80 317.18
  Q 517.96 323.17 517.98 323.19
  C 524.95 327.66 531.50 332.54 538.91 336.52
  C 544.36 339.45 549.51 343.10 554.97 346.23
  Q 562.71 350.65 567.22 353.66
  C 572.55 357.23 577.43 360.51 583.38 363.88
  C 592.74 369.18 601.16 375.67 610.60 380.89
  Q 616.14 383.96 622.05 387.92
  C 625.39 390.17 629.70 392.30 633.03 394.33
  Z"
/>
</svg>
