<?xml version="1.0" encoding="UTF-8"?><svg xmlns="http://www.w3.org/2000/svg" width="24px" height="24px" fill="none" stroke-width="1.5" viewBox="0 0 24 24" color="#000000"><path stroke="#000000" stroke-width="1.5" d="M19 20H5a2 2 0 0 1-2-2V9a2 2 0 0 1 2-2h14a2 2 0 0 1 2 2v9a2 2 0 0 1-2 2Z"></path><path fill="#000000" stroke="#000000" stroke-width="1.5" stroke-linecap="round" stroke-linejoin="round" d="M16.5 14a.5.5 0 1 1 0-1 .5.5 0 0 1 0 1Z"></path><path stroke="#000000" stroke-width="1.5" d="M18 7V5.603a2 2 0 0 0-2.515-1.932l-11 2.933A2 2 0 0 0 3 8.537V9"></path></svg>